<mxfile host="app.diagrams.net" modified="2023-05-25T23:28:04.450Z" agent="Mozilla/5.0 (Windows NT 10.0; Win64; x64; rv:109.0) Gecko/20100101 Firefox/113.0" etag="gq_6PF_vkc9Rnf9nooT_" version="21.3.2" type="device">
  <diagram name="Page-1" id="hFfW7zqoBJgQ0zSDzAqq">
    <mxGraphModel dx="1397" dy="757" grid="1" gridSize="10" guides="1" tooltips="1" connect="1" arrows="1" fold="1" page="0" pageScale="1" pageWidth="850" pageHeight="1100" math="0" shadow="0">
      <root>
        <mxCell id="0" />
        <mxCell id="1" parent="0" />
        <mxCell id="3fJi98H5E-eTO68b8pMl-1" value="GIMNASIO" style="whiteSpace=wrap;html=1;align=center;fontSize=12;" vertex="1" parent="1">
          <mxGeometry x="770" y="150" width="150" height="50" as="geometry" />
        </mxCell>
        <mxCell id="3fJi98H5E-eTO68b8pMl-2" value="&lt;div style=&quot;font-size: 12px;&quot;&gt;Bitácora:&lt;/div&gt;&lt;div&gt;&lt;br&gt;&lt;/div&gt;&lt;div&gt;*1: El tipo de WOD puede ser: clasificatoria, cuartos de final, semifinales, y final.&lt;/div&gt;&lt;div&gt;&lt;br&gt;&lt;/div&gt;&lt;div&gt;*2: Es posible que un atleta se inscriba a una competencia, pero no realice ningún hit del mismo. Sin embargo, es imposible realizar un WOD sin realizar ninguno de sus hits.&lt;/div&gt;&lt;div&gt;&lt;br&gt;&lt;/div&gt;&lt;div&gt;*3: La etapa de una competencia puede ser: Lanzamiento, pre-inscripción, abierta, inscripciones cerradas, en ejecución, validación, cerrada.&lt;br&gt;&lt;/div&gt;&lt;div&gt;&lt;br&gt;&lt;/div&gt;&lt;div&gt;*4: (Suposición) Las fotografías se almacenan por WOD.&lt;br&gt;&lt;/div&gt;" style="text;html=1;strokeColor=none;fillColor=none;align=left;verticalAlign=top;whiteSpace=wrap;rounded=0;fontSize=12;" vertex="1" parent="1">
          <mxGeometry x="-760" y="640" width="960" height="170" as="geometry" />
        </mxCell>
        <mxCell id="3fJi98H5E-eTO68b8pMl-3" value="&lt;div style=&quot;font-size: 12px;&quot;&gt;Normas no escritas:&lt;/div&gt;&lt;div style=&quot;font-size: 12px;&quot;&gt;&lt;br&gt;&lt;/div&gt;&lt;div style=&quot;font-size: 12px;&quot;&gt;(1): Un atleta solo puede realizar hits de los WODs de las competencias a las que se haya inscripto.&lt;br style=&quot;font-size: 12px;&quot;&gt;&lt;/div&gt;&lt;div&gt;&lt;br&gt;&lt;/div&gt;&lt;div&gt;(2): Las competencias realizadas en un mismo gimnasio deben tener periodos de tiempo de ejecución distintos.&lt;br&gt;&lt;/div&gt;&lt;div&gt;&lt;br&gt;&lt;/div&gt;&lt;div&gt;(3): Las fechas de los WODs de una misma competencia deben ser distintos, y pertenecer al periodo de tiempo de ejecución de la competencia.&lt;br&gt;&lt;/div&gt;&lt;div&gt;&lt;br&gt;&lt;/div&gt;&lt;div&gt;(4): Los periodos de tiempo de cada etapa deben ser disjuntos, y estar ordenados de acuerdo a las etapas.&lt;/div&gt;&lt;div&gt;&lt;br&gt;&lt;/div&gt;&lt;div&gt;(5): Los horarios de los hits de un WOD deben ser disjuntos.&lt;/div&gt;&lt;div&gt;&lt;br&gt;&lt;/div&gt;&lt;div&gt;(6): Las contraseñas de los usuarios deben estar protegidas.&lt;br&gt;&lt;/div&gt;" style="text;html=1;strokeColor=none;fillColor=none;align=left;verticalAlign=top;whiteSpace=wrap;rounded=0;fontSize=12;" vertex="1" parent="1">
          <mxGeometry x="780" y="850" width="790" height="220" as="geometry" />
        </mxCell>
        <mxCell id="3fJi98H5E-eTO68b8pMl-4" value="COMPETENCIA" style="whiteSpace=wrap;html=1;align=center;fontSize=12;" vertex="1" parent="1">
          <mxGeometry x="190" y="-70" width="180" height="60" as="geometry" />
        </mxCell>
        <mxCell id="3fJi98H5E-eTO68b8pMl-5" value="USUARIO" style="whiteSpace=wrap;html=1;align=center;fontSize=12;" vertex="1" parent="1">
          <mxGeometry x="970" y="-20" width="130" height="70" as="geometry" />
        </mxCell>
        <mxCell id="3fJi98H5E-eTO68b8pMl-6" value="ATLETA" style="whiteSpace=wrap;html=1;align=center;fontSize=12;" vertex="1" parent="1">
          <mxGeometry x="600" y="150" width="110" height="50" as="geometry" />
        </mxCell>
        <mxCell id="3fJi98H5E-eTO68b8pMl-7" value="JUEZ" style="whiteSpace=wrap;html=1;align=center;fontSize=12;" vertex="1" parent="1">
          <mxGeometry x="1180" y="150" width="90" height="50" as="geometry" />
        </mxCell>
        <mxCell id="3fJi98H5E-eTO68b8pMl-8" value="FOTOGRAFO" style="whiteSpace=wrap;html=1;align=center;fontSize=12;" vertex="1" parent="1">
          <mxGeometry x="950" y="150" width="170" height="50" as="geometry" />
        </mxCell>
        <mxCell id="3fJi98H5E-eTO68b8pMl-9" value="ADMINISTRADOR" style="whiteSpace=wrap;html=1;align=center;fontSize=12;" vertex="1" parent="1">
          <mxGeometry x="1320" y="150" width="190" height="50" as="geometry" />
        </mxCell>
        <mxCell id="3fJi98H5E-eTO68b8pMl-11" value="" style="endArrow=classic;html=1;rounded=0;edgeStyle=elbowEdgeStyle;elbow=vertical;startArrow=none;startFill=0;endFill=1;startSize=16;endSize=16;fontSize=12;" edge="1" parent="1" source="3fJi98H5E-eTO68b8pMl-6" target="3fJi98H5E-eTO68b8pMl-5">
          <mxGeometry width="50" height="50" relative="1" as="geometry">
            <mxPoint x="940" y="50" as="sourcePoint" />
            <mxPoint x="990" as="targetPoint" />
          </mxGeometry>
        </mxCell>
        <mxCell id="3fJi98H5E-eTO68b8pMl-13" value="" style="endArrow=classic;html=1;rounded=0;edgeStyle=elbowEdgeStyle;elbow=vertical;startArrow=none;startFill=0;endFill=1;startSize=16;endSize=16;fontSize=12;" edge="1" parent="1" source="3fJi98H5E-eTO68b8pMl-1" target="3fJi98H5E-eTO68b8pMl-5">
          <mxGeometry width="50" height="50" relative="1" as="geometry">
            <mxPoint x="585" y="130" as="sourcePoint" />
            <mxPoint x="1045" y="-30" as="targetPoint" />
          </mxGeometry>
        </mxCell>
        <mxCell id="3fJi98H5E-eTO68b8pMl-14" value="" style="endArrow=classic;html=1;rounded=0;edgeStyle=elbowEdgeStyle;elbow=vertical;startArrow=none;startFill=0;endFill=1;startSize=16;endSize=16;fontSize=12;" edge="1" parent="1" source="3fJi98H5E-eTO68b8pMl-8" target="3fJi98H5E-eTO68b8pMl-5">
          <mxGeometry width="50" height="50" relative="1" as="geometry">
            <mxPoint x="815" y="130" as="sourcePoint" />
            <mxPoint x="1045" y="-30" as="targetPoint" />
          </mxGeometry>
        </mxCell>
        <mxCell id="3fJi98H5E-eTO68b8pMl-15" value="" style="endArrow=classic;html=1;rounded=0;edgeStyle=elbowEdgeStyle;elbow=vertical;startArrow=none;startFill=0;endFill=1;startSize=16;endSize=16;fontSize=12;" edge="1" parent="1" source="3fJi98H5E-eTO68b8pMl-7" target="3fJi98H5E-eTO68b8pMl-5">
          <mxGeometry width="50" height="50" relative="1" as="geometry">
            <mxPoint x="1045" y="130" as="sourcePoint" />
            <mxPoint x="1045" y="-30" as="targetPoint" />
          </mxGeometry>
        </mxCell>
        <mxCell id="3fJi98H5E-eTO68b8pMl-16" value="" style="endArrow=classic;html=1;rounded=0;edgeStyle=elbowEdgeStyle;elbow=vertical;startArrow=none;startFill=0;endFill=1;startSize=16;endSize=16;fontSize=12;" edge="1" parent="1" source="3fJi98H5E-eTO68b8pMl-9" target="3fJi98H5E-eTO68b8pMl-5">
          <mxGeometry width="50" height="50" relative="1" as="geometry">
            <mxPoint x="1275" y="130" as="sourcePoint" />
            <mxPoint x="1045" y="-30" as="targetPoint" />
          </mxGeometry>
        </mxCell>
        <mxCell id="3fJi98H5E-eTO68b8pMl-17" value="(t, e)" style="text;html=1;align=center;verticalAlign=middle;resizable=0;points=[];autosize=1;strokeColor=none;fillColor=none;fontSize=12;" vertex="1" parent="1">
          <mxGeometry x="1032" y="74" width="50" height="30" as="geometry" />
        </mxCell>
        <mxCell id="3fJi98H5E-eTO68b8pMl-21" value="" style="endArrow=none;html=1;rounded=0;edgeStyle=elbowEdgeStyle;elbow=vertical;startArrow=none;startFill=0;endFill=0;startSize=16;endSize=16;fontSize=12;" edge="1" parent="1" source="3fJi98H5E-eTO68b8pMl-24" target="3fJi98H5E-eTO68b8pMl-4">
          <mxGeometry width="50" height="50" relative="1" as="geometry">
            <mxPoint x="280" y="40" as="sourcePoint" />
            <mxPoint x="820" y="60" as="targetPoint" />
          </mxGeometry>
        </mxCell>
        <mxCell id="3fJi98H5E-eTO68b8pMl-22" value="" style="endArrow=none;html=1;rounded=0;edgeStyle=elbowEdgeStyle;elbow=vertical;startArrow=none;startFill=0;endFill=0;startSize=16;endSize=16;fontSize=12;" edge="1" parent="1" source="3fJi98H5E-eTO68b8pMl-25" target="3fJi98H5E-eTO68b8pMl-24">
          <mxGeometry width="50" height="50" relative="1" as="geometry">
            <mxPoint x="280" y="170" as="sourcePoint" />
            <mxPoint x="280" y="50" as="targetPoint" />
          </mxGeometry>
        </mxCell>
        <mxCell id="3fJi98H5E-eTO68b8pMl-23" value="1" style="text;html=1;align=center;verticalAlign=middle;resizable=0;points=[];autosize=1;strokeColor=none;fillColor=none;" vertex="1" parent="1">
          <mxGeometry x="275" y="-12" width="30" height="30" as="geometry" />
        </mxCell>
        <mxCell id="3fJi98H5E-eTO68b8pMl-24" value="tiene" style="shape=rhombus;double=1;perimeter=rhombusPerimeter;whiteSpace=wrap;html=1;align=center;" vertex="1" parent="1">
          <mxGeometry x="220" y="40" width="120" height="60" as="geometry" />
        </mxCell>
        <mxCell id="3fJi98H5E-eTO68b8pMl-25" value="WOD" style="shape=ext;margin=3;double=1;whiteSpace=wrap;html=1;align=center;" vertex="1" parent="1">
          <mxGeometry x="230" y="150" width="100" height="40" as="geometry" />
        </mxCell>
        <mxCell id="3fJi98H5E-eTO68b8pMl-26" value="0..N" style="text;html=1;align=center;verticalAlign=middle;resizable=0;points=[];autosize=1;strokeColor=none;fillColor=none;" vertex="1" parent="1">
          <mxGeometry x="238" y="126" width="50" height="30" as="geometry" />
        </mxCell>
        <mxCell id="3fJi98H5E-eTO68b8pMl-27" value="Tipo" style="ellipse;whiteSpace=wrap;html=1;align=center;" vertex="1" parent="1">
          <mxGeometry x="110" y="230" width="40" height="40" as="geometry" />
        </mxCell>
        <mxCell id="3fJi98H5E-eTO68b8pMl-28" value="" style="endArrow=none;html=1;rounded=0;elbow=vertical;startArrow=none;startFill=0;endFill=0;startSize=16;endSize=16;fontSize=12;" edge="1" parent="1" source="3fJi98H5E-eTO68b8pMl-27" target="3fJi98H5E-eTO68b8pMl-25">
          <mxGeometry width="50" height="50" relative="1" as="geometry">
            <mxPoint x="290" y="160" as="sourcePoint" />
            <mxPoint x="290" y="30" as="targetPoint" />
          </mxGeometry>
        </mxCell>
        <mxCell id="3fJi98H5E-eTO68b8pMl-29" value="*1" style="text;html=1;align=center;verticalAlign=middle;resizable=0;points=[];autosize=1;strokeColor=none;fillColor=#333333;" vertex="1" parent="1">
          <mxGeometry x="70" y="240" width="30" height="30" as="geometry" />
        </mxCell>
        <mxCell id="3fJi98H5E-eTO68b8pMl-32" value="HIT" style="shape=ext;margin=3;double=1;whiteSpace=wrap;html=1;align=center;" vertex="1" parent="1">
          <mxGeometry x="230" y="350" width="100" height="40" as="geometry" />
        </mxCell>
        <mxCell id="3fJi98H5E-eTO68b8pMl-33" value="tiene" style="shape=rhombus;double=1;perimeter=rhombusPerimeter;whiteSpace=wrap;html=1;align=center;" vertex="1" parent="1">
          <mxGeometry x="220" y="240" width="120" height="60" as="geometry" />
        </mxCell>
        <mxCell id="3fJi98H5E-eTO68b8pMl-34" value="" style="endArrow=none;html=1;rounded=0;startArrow=none;startFill=0;endFill=0;startSize=16;endSize=16;fontSize=12;" edge="1" parent="1" source="3fJi98H5E-eTO68b8pMl-25" target="3fJi98H5E-eTO68b8pMl-33">
          <mxGeometry width="50" height="50" relative="1" as="geometry">
            <mxPoint x="310" y="270" as="sourcePoint" />
            <mxPoint x="290" y="50" as="targetPoint" />
          </mxGeometry>
        </mxCell>
        <mxCell id="3fJi98H5E-eTO68b8pMl-36" value="" style="endArrow=none;html=1;rounded=0;startArrow=none;startFill=0;endFill=0;startSize=16;endSize=16;fontSize=12;" edge="1" parent="1" source="3fJi98H5E-eTO68b8pMl-32" target="3fJi98H5E-eTO68b8pMl-33">
          <mxGeometry width="50" height="50" relative="1" as="geometry">
            <mxPoint x="340" y="150" as="sourcePoint" />
            <mxPoint x="430" y="150" as="targetPoint" />
          </mxGeometry>
        </mxCell>
        <mxCell id="3fJi98H5E-eTO68b8pMl-37" value="1" style="text;html=1;align=center;verticalAlign=middle;resizable=0;points=[];autosize=1;strokeColor=none;fillColor=none;" vertex="1" parent="1">
          <mxGeometry x="255" y="190" width="30" height="30" as="geometry" />
        </mxCell>
        <mxCell id="3fJi98H5E-eTO68b8pMl-38" value="0..N" style="text;html=1;align=center;verticalAlign=middle;resizable=0;points=[];autosize=1;strokeColor=none;fillColor=none;" vertex="1" parent="1">
          <mxGeometry x="232" y="325" width="50" height="30" as="geometry" />
        </mxCell>
        <mxCell id="3fJi98H5E-eTO68b8pMl-39" value="Inscripto a" style="shape=rhombus;perimeter=rhombusPerimeter;whiteSpace=wrap;html=1;align=center;" vertex="1" parent="1">
          <mxGeometry x="567" y="-70" width="120" height="60" as="geometry" />
        </mxCell>
        <mxCell id="3fJi98H5E-eTO68b8pMl-40" value="" style="endArrow=none;html=1;rounded=0;startArrow=none;startFill=0;endFill=0;startSize=16;endSize=16;fontSize=12;" edge="1" parent="1" source="3fJi98H5E-eTO68b8pMl-39" target="3fJi98H5E-eTO68b8pMl-4">
          <mxGeometry width="50" height="50" relative="1" as="geometry">
            <mxPoint x="110" y="100" as="sourcePoint" />
            <mxPoint x="110" as="targetPoint" />
          </mxGeometry>
        </mxCell>
        <mxCell id="3fJi98H5E-eTO68b8pMl-42" value="0..N" style="text;html=1;align=center;verticalAlign=middle;resizable=0;points=[];autosize=1;strokeColor=none;fillColor=none;" vertex="1" parent="1">
          <mxGeometry x="362" y="-45" width="50" height="30" as="geometry" />
        </mxCell>
        <mxCell id="3fJi98H5E-eTO68b8pMl-43" value="0..N" style="text;html=1;align=center;verticalAlign=middle;resizable=0;points=[];autosize=1;strokeColor=none;fillColor=none;" vertex="1" parent="1">
          <mxGeometry x="583" y="123" width="50" height="30" as="geometry" />
        </mxCell>
        <mxCell id="3fJi98H5E-eTO68b8pMl-44" value="(1)" style="text;html=1;align=center;verticalAlign=middle;resizable=0;points=[];autosize=1;strokeColor=none;fillColor=#333333;" vertex="1" parent="1">
          <mxGeometry x="615" y="400" width="40" height="30" as="geometry" />
        </mxCell>
        <mxCell id="3fJi98H5E-eTO68b8pMl-51" value="Realiza" style="shape=rhombus;perimeter=rhombusPerimeter;whiteSpace=wrap;html=1;align=center;" vertex="1" parent="1">
          <mxGeometry x="595" y="340" width="120" height="60" as="geometry" />
        </mxCell>
        <mxCell id="3fJi98H5E-eTO68b8pMl-52" value="" style="endArrow=none;html=1;rounded=0;startArrow=none;startFill=0;endFill=0;startSize=16;endSize=16;fontSize=12;" edge="1" parent="1" source="3fJi98H5E-eTO68b8pMl-51" target="3fJi98H5E-eTO68b8pMl-6">
          <mxGeometry width="50" height="50" relative="1" as="geometry">
            <mxPoint x="440" y="190" as="sourcePoint" />
            <mxPoint x="610" y="185" as="targetPoint" />
          </mxGeometry>
        </mxCell>
        <mxCell id="3fJi98H5E-eTO68b8pMl-53" value="" style="endArrow=none;html=1;rounded=0;startArrow=none;startFill=0;endFill=0;startSize=16;endSize=16;fontSize=12;" edge="1" parent="1" source="3fJi98H5E-eTO68b8pMl-51" target="3fJi98H5E-eTO68b8pMl-32">
          <mxGeometry width="50" height="50" relative="1" as="geometry">
            <mxPoint x="440" y="270" as="sourcePoint" />
            <mxPoint x="665" y="110" as="targetPoint" />
          </mxGeometry>
        </mxCell>
        <mxCell id="3fJi98H5E-eTO68b8pMl-54" value="0..N" style="text;html=1;align=center;verticalAlign=middle;resizable=0;points=[];autosize=1;strokeColor=none;fillColor=none;" vertex="1" parent="1">
          <mxGeometry x="647" y="196" width="50" height="30" as="geometry" />
        </mxCell>
        <mxCell id="3fJi98H5E-eTO68b8pMl-55" value="0..N" style="text;html=1;align=center;verticalAlign=middle;resizable=0;points=[];autosize=1;strokeColor=none;fillColor=none;" vertex="1" parent="1">
          <mxGeometry x="322" y="345" width="50" height="30" as="geometry" />
        </mxCell>
        <mxCell id="3fJi98H5E-eTO68b8pMl-57" value="*2" style="text;html=1;align=center;verticalAlign=middle;resizable=0;points=[];autosize=1;strokeColor=none;fillColor=#333333;" vertex="1" parent="1">
          <mxGeometry x="665" y="400" width="30" height="30" as="geometry" />
        </mxCell>
        <mxCell id="3fJi98H5E-eTO68b8pMl-60" value="" style="endArrow=none;html=1;rounded=0;startArrow=none;startFill=0;endFill=0;startSize=16;endSize=16;fontSize=12;entryX=0.25;entryY=0;entryDx=0;entryDy=0;" edge="1" parent="1" source="3fJi98H5E-eTO68b8pMl-39" target="3fJi98H5E-eTO68b8pMl-6">
          <mxGeometry width="50" height="50" relative="1" as="geometry">
            <mxPoint x="561.3076923076924" y="-121.15384615384619" as="sourcePoint" />
            <mxPoint x="480" y="50" as="targetPoint" />
          </mxGeometry>
        </mxCell>
        <mxCell id="3fJi98H5E-eTO68b8pMl-61" value="Realizada en" style="shape=rhombus;perimeter=rhombusPerimeter;whiteSpace=wrap;html=1;align=center;" vertex="1" parent="1">
          <mxGeometry x="710" y="-200" width="120" height="60" as="geometry" />
        </mxCell>
        <mxCell id="3fJi98H5E-eTO68b8pMl-62" value="" style="endArrow=none;html=1;rounded=0;startArrow=none;startFill=0;endFill=0;startSize=16;endSize=16;fontSize=12;edgeStyle=orthogonalEdgeStyle;" edge="1" parent="1" source="3fJi98H5E-eTO68b8pMl-61" target="3fJi98H5E-eTO68b8pMl-4">
          <mxGeometry width="50" height="50" relative="1" as="geometry">
            <mxPoint x="637" as="sourcePoint" />
            <mxPoint x="638" y="160" as="targetPoint" />
          </mxGeometry>
        </mxCell>
        <mxCell id="3fJi98H5E-eTO68b8pMl-63" value="" style="endArrow=none;html=1;rounded=0;startArrow=none;startFill=0;endFill=0;startSize=16;endSize=16;fontSize=12;edgeStyle=elbowEdgeStyle;elbow=vertical;entryX=0.25;entryY=0;entryDx=0;entryDy=0;" edge="1" parent="1" source="3fJi98H5E-eTO68b8pMl-61" target="3fJi98H5E-eTO68b8pMl-1">
          <mxGeometry width="50" height="50" relative="1" as="geometry">
            <mxPoint x="720" y="-160" as="sourcePoint" />
            <mxPoint x="430" y="-60" as="targetPoint" />
          </mxGeometry>
        </mxCell>
        <mxCell id="3fJi98H5E-eTO68b8pMl-64" value="1" style="text;html=1;align=center;verticalAlign=middle;resizable=0;points=[];autosize=1;strokeColor=none;fillColor=none;" vertex="1" parent="1">
          <mxGeometry x="772" y="125" width="30" height="30" as="geometry" />
        </mxCell>
        <mxCell id="3fJi98H5E-eTO68b8pMl-65" value="0..N" style="text;html=1;align=center;verticalAlign=middle;resizable=0;points=[];autosize=1;strokeColor=none;fillColor=none;" vertex="1" parent="1">
          <mxGeometry x="272" y="-95" width="50" height="30" as="geometry" />
        </mxCell>
        <mxCell id="3fJi98H5E-eTO68b8pMl-66" value="&lt;div&gt;Periodos de&lt;/div&gt;&lt;div&gt;tiempo&lt;/div&gt;" style="ellipse;whiteSpace=wrap;html=1;align=center;" vertex="1" parent="1">
          <mxGeometry x="-50" y="-60" width="90" height="40" as="geometry" />
        </mxCell>
        <mxCell id="3fJi98H5E-eTO68b8pMl-67" value="" style="endArrow=none;html=1;rounded=0;elbow=vertical;startArrow=none;startFill=0;endFill=0;startSize=16;endSize=16;fontSize=12;" edge="1" parent="1" source="3fJi98H5E-eTO68b8pMl-66" target="3fJi98H5E-eTO68b8pMl-4">
          <mxGeometry width="50" height="50" relative="1" as="geometry">
            <mxPoint x="160" y="197" as="sourcePoint" />
            <mxPoint x="240" y="187" as="targetPoint" />
          </mxGeometry>
        </mxCell>
        <mxCell id="3fJi98H5E-eTO68b8pMl-68" value="(2)" style="text;html=1;align=center;verticalAlign=middle;resizable=0;points=[];autosize=1;strokeColor=none;fillColor=#333333;" vertex="1" parent="1">
          <mxGeometry x="-299" y="5" width="40" height="30" as="geometry" />
        </mxCell>
        <mxCell id="3fJi98H5E-eTO68b8pMl-69" value="Etapa" style="ellipse;whiteSpace=wrap;html=1;align=center;" vertex="1" parent="1">
          <mxGeometry x="110" y="-160" width="90" height="40" as="geometry" />
        </mxCell>
        <mxCell id="3fJi98H5E-eTO68b8pMl-70" value="*3" style="text;html=1;align=center;verticalAlign=middle;resizable=0;points=[];autosize=1;strokeColor=none;fillColor=#333333;" vertex="1" parent="1">
          <mxGeometry x="60" y="-155" width="30" height="30" as="geometry" />
        </mxCell>
        <mxCell id="3fJi98H5E-eTO68b8pMl-71" value="" style="endArrow=none;html=1;rounded=0;elbow=vertical;startArrow=none;startFill=0;endFill=0;startSize=16;endSize=16;fontSize=12;" edge="1" parent="1" source="3fJi98H5E-eTO68b8pMl-69" target="3fJi98H5E-eTO68b8pMl-4">
          <mxGeometry width="50" height="50" relative="1" as="geometry">
            <mxPoint x="130" y="-30" as="sourcePoint" />
            <mxPoint x="200" y="-30" as="targetPoint" />
          </mxGeometry>
        </mxCell>
        <mxCell id="3fJi98H5E-eTO68b8pMl-73" value="Lanzamiento" style="ellipse;whiteSpace=wrap;html=1;align=center;" vertex="1" parent="1">
          <mxGeometry x="-250" y="-180" width="90" height="40" as="geometry" />
        </mxCell>
        <mxCell id="3fJi98H5E-eTO68b8pMl-74" value="" style="endArrow=none;html=1;rounded=0;elbow=vertical;startArrow=none;startFill=0;endFill=0;startSize=16;endSize=16;fontSize=12;" edge="1" parent="1" source="3fJi98H5E-eTO68b8pMl-73" target="3fJi98H5E-eTO68b8pMl-66">
          <mxGeometry width="50" height="50" relative="1" as="geometry">
            <mxPoint x="-120" y="77" as="sourcePoint" />
            <mxPoint x="-90" y="-160" as="targetPoint" />
          </mxGeometry>
        </mxCell>
        <mxCell id="3fJi98H5E-eTO68b8pMl-85" value="Pre-inscripción" style="ellipse;whiteSpace=wrap;html=1;align=center;" vertex="1" parent="1">
          <mxGeometry x="-250" y="-135" width="90" height="40" as="geometry" />
        </mxCell>
        <mxCell id="3fJi98H5E-eTO68b8pMl-86" value="" style="endArrow=none;html=1;rounded=0;elbow=vertical;startArrow=none;startFill=0;endFill=0;startSize=16;endSize=16;fontSize=12;" edge="1" parent="1" source="3fJi98H5E-eTO68b8pMl-85" target="3fJi98H5E-eTO68b8pMl-66">
          <mxGeometry width="50" height="50" relative="1" as="geometry">
            <mxPoint x="-120" y="122" as="sourcePoint" />
            <mxPoint x="-90" y="-115" as="targetPoint" />
          </mxGeometry>
        </mxCell>
        <mxCell id="3fJi98H5E-eTO68b8pMl-87" value="Nombre" style="ellipse;whiteSpace=wrap;html=1;align=center;fontStyle=4" vertex="1" parent="1">
          <mxGeometry x="100" y="64" width="60" height="40" as="geometry" />
        </mxCell>
        <mxCell id="3fJi98H5E-eTO68b8pMl-88" value="" style="endArrow=none;html=1;rounded=0;elbow=vertical;startArrow=none;startFill=0;endFill=0;startSize=16;endSize=16;fontSize=12;" edge="1" parent="1" source="3fJi98H5E-eTO68b8pMl-87">
          <mxGeometry width="50" height="50" relative="1" as="geometry">
            <mxPoint x="160" y="197" as="sourcePoint" />
            <mxPoint x="245" y="150" as="targetPoint" />
          </mxGeometry>
        </mxCell>
        <mxCell id="3fJi98H5E-eTO68b8pMl-89" value="Fecha" style="ellipse;whiteSpace=wrap;html=1;align=center;" vertex="1" parent="1">
          <mxGeometry x="110" y="116" width="40" height="40" as="geometry" />
        </mxCell>
        <mxCell id="3fJi98H5E-eTO68b8pMl-90" value="" style="endArrow=none;html=1;rounded=0;elbow=vertical;startArrow=none;startFill=0;endFill=0;startSize=16;endSize=16;fontSize=12;" edge="1" parent="1" source="3fJi98H5E-eTO68b8pMl-89" target="3fJi98H5E-eTO68b8pMl-25">
          <mxGeometry width="50" height="50" relative="1" as="geometry">
            <mxPoint x="157" y="104" as="sourcePoint" />
            <mxPoint x="255" y="160" as="targetPoint" />
          </mxGeometry>
        </mxCell>
        <mxCell id="3fJi98H5E-eTO68b8pMl-91" value="&lt;div&gt;(3)&lt;/div&gt;" style="text;html=1;align=center;verticalAlign=middle;resizable=0;points=[];autosize=1;strokeColor=none;fillColor=#333333;" vertex="1" parent="1">
          <mxGeometry x="60" y="121" width="40" height="30" as="geometry" />
        </mxCell>
        <mxCell id="3fJi98H5E-eTO68b8pMl-92" value="Abierta" style="ellipse;whiteSpace=wrap;html=1;align=center;" vertex="1" parent="1">
          <mxGeometry x="-250" y="-90" width="90" height="40" as="geometry" />
        </mxCell>
        <mxCell id="3fJi98H5E-eTO68b8pMl-93" value="" style="endArrow=none;html=1;rounded=0;elbow=vertical;startArrow=none;startFill=0;endFill=0;startSize=16;endSize=16;fontSize=12;" edge="1" parent="1" source="3fJi98H5E-eTO68b8pMl-92" target="3fJi98H5E-eTO68b8pMl-66">
          <mxGeometry width="50" height="50" relative="1" as="geometry">
            <mxPoint x="-120" y="167" as="sourcePoint" />
            <mxPoint x="-90" y="-70" as="targetPoint" />
          </mxGeometry>
        </mxCell>
        <mxCell id="3fJi98H5E-eTO68b8pMl-94" value="&lt;div&gt;Inscripciones&lt;/div&gt;&lt;div&gt;cerradas&lt;br&gt;&lt;/div&gt;" style="ellipse;whiteSpace=wrap;html=1;align=center;" vertex="1" parent="1">
          <mxGeometry x="-250" y="-45" width="90" height="40" as="geometry" />
        </mxCell>
        <mxCell id="3fJi98H5E-eTO68b8pMl-95" value="" style="endArrow=none;html=1;rounded=0;elbow=vertical;startArrow=none;startFill=0;endFill=0;startSize=16;endSize=16;fontSize=12;" edge="1" parent="1" source="3fJi98H5E-eTO68b8pMl-94" target="3fJi98H5E-eTO68b8pMl-66">
          <mxGeometry width="50" height="50" relative="1" as="geometry">
            <mxPoint x="-120" y="212" as="sourcePoint" />
            <mxPoint x="-90" y="-25" as="targetPoint" />
          </mxGeometry>
        </mxCell>
        <mxCell id="3fJi98H5E-eTO68b8pMl-101" value="Ejecución" style="ellipse;whiteSpace=wrap;html=1;align=center;" vertex="1" parent="1">
          <mxGeometry x="-250" width="90" height="40" as="geometry" />
        </mxCell>
        <mxCell id="3fJi98H5E-eTO68b8pMl-102" value="" style="endArrow=none;html=1;rounded=0;elbow=vertical;startArrow=none;startFill=0;endFill=0;startSize=16;endSize=16;fontSize=12;" edge="1" parent="1" source="3fJi98H5E-eTO68b8pMl-101" target="3fJi98H5E-eTO68b8pMl-66">
          <mxGeometry width="50" height="50" relative="1" as="geometry">
            <mxPoint x="-120" y="257" as="sourcePoint" />
            <mxPoint x="-90" y="20" as="targetPoint" />
          </mxGeometry>
        </mxCell>
        <mxCell id="3fJi98H5E-eTO68b8pMl-103" value="Validación" style="ellipse;whiteSpace=wrap;html=1;align=center;" vertex="1" parent="1">
          <mxGeometry x="-250" y="45" width="90" height="40" as="geometry" />
        </mxCell>
        <mxCell id="3fJi98H5E-eTO68b8pMl-104" value="" style="endArrow=none;html=1;rounded=0;elbow=vertical;startArrow=none;startFill=0;endFill=0;startSize=16;endSize=16;fontSize=12;" edge="1" parent="1" source="3fJi98H5E-eTO68b8pMl-103" target="3fJi98H5E-eTO68b8pMl-66">
          <mxGeometry width="50" height="50" relative="1" as="geometry">
            <mxPoint x="-120" y="302" as="sourcePoint" />
            <mxPoint x="-100" y="65" as="targetPoint" />
          </mxGeometry>
        </mxCell>
        <mxCell id="3fJi98H5E-eTO68b8pMl-105" value="(4)" style="text;html=1;align=center;verticalAlign=middle;resizable=0;points=[];autosize=1;strokeColor=none;fillColor=#333333;" vertex="1" parent="1">
          <mxGeometry x="-25" y="-5" width="40" height="30" as="geometry" />
        </mxCell>
        <mxCell id="3fJi98H5E-eTO68b8pMl-106" value="&lt;div&gt;Preguntas:&lt;/div&gt;&lt;div&gt;&lt;br&gt;&lt;/div&gt;&lt;div&gt;En una competencia: ¿Puede haber un espacio de tiempo entre el fin de una etapa y el inicio de otra?&lt;br&gt;&lt;/div&gt;&lt;div&gt;&lt;br&gt;&lt;/div&gt;&lt;div&gt;¿Una foto se almacena por WOD o por hit?&lt;/div&gt;&lt;div&gt;&lt;br&gt;&lt;/div&gt;&lt;div&gt;¿La entidad &quot;FOTOGRAFÍA&quot; cuenta como entidad débil de &quot;WOD&quot;?&lt;/div&gt;&lt;div&gt;&lt;br&gt;&lt;/div&gt;&lt;div&gt;¿No sería mejor almacenar la fecha de inicio de la etapa de lanzamiento, y luego las fechas de fin de todas las etapas?&lt;/div&gt;&lt;div&gt;&lt;br&gt;&lt;/div&gt;&lt;div&gt;¿Cómo, exactamente, deberíamos proteger las contraseñas de los usuarios?&lt;br&gt;&lt;/div&gt;" style="text;html=1;strokeColor=none;fillColor=none;align=left;verticalAlign=top;whiteSpace=wrap;rounded=0;fontSize=12;" vertex="1" parent="1">
          <mxGeometry x="-40" y="890" width="685" height="170" as="geometry" />
        </mxCell>
        <mxCell id="3fJi98H5E-eTO68b8pMl-108" value="FOTOGRAFÍA" style="whiteSpace=wrap;html=1;align=center;fontSize=12;" vertex="1" parent="1">
          <mxGeometry x="840" y="385" width="180" height="60" as="geometry" />
        </mxCell>
        <mxCell id="3fJi98H5E-eTO68b8pMl-109" value="ID" style="ellipse;whiteSpace=wrap;html=1;align=center;fontStyle=4" vertex="1" parent="1">
          <mxGeometry x="820" y="475" width="40" height="40" as="geometry" />
        </mxCell>
        <mxCell id="3fJi98H5E-eTO68b8pMl-110" value="ID externo" style="ellipse;whiteSpace=wrap;html=1;align=center;fontStyle=0" vertex="1" parent="1">
          <mxGeometry x="890" y="475" width="70" height="40" as="geometry" />
        </mxCell>
        <mxCell id="3fJi98H5E-eTO68b8pMl-112" value="" style="endArrow=none;html=1;rounded=0;startArrow=none;startFill=0;endFill=0;startSize=16;endSize=16;fontSize=12;" edge="1" parent="1" source="3fJi98H5E-eTO68b8pMl-109" target="3fJi98H5E-eTO68b8pMl-108">
          <mxGeometry width="50" height="50" relative="1" as="geometry">
            <mxPoint x="685" y="450" as="sourcePoint" />
            <mxPoint x="685" y="310" as="targetPoint" />
          </mxGeometry>
        </mxCell>
        <mxCell id="3fJi98H5E-eTO68b8pMl-113" value="" style="endArrow=none;html=1;rounded=0;startArrow=none;startFill=0;endFill=0;startSize=16;endSize=16;fontSize=12;" edge="1" parent="1" source="3fJi98H5E-eTO68b8pMl-110" target="3fJi98H5E-eTO68b8pMl-108">
          <mxGeometry width="50" height="50" relative="1" as="geometry">
            <mxPoint x="865" y="492" as="sourcePoint" />
            <mxPoint x="906" y="455" as="targetPoint" />
          </mxGeometry>
        </mxCell>
        <mxCell id="3fJi98H5E-eTO68b8pMl-116" value="tiene" style="shape=rhombus;perimeter=rhombusPerimeter;whiteSpace=wrap;html=1;align=center;" vertex="1" parent="1">
          <mxGeometry x="740" y="270" width="120" height="60" as="geometry" />
        </mxCell>
        <mxCell id="3fJi98H5E-eTO68b8pMl-117" value="" style="endArrow=none;html=1;rounded=0;startArrow=none;startFill=0;endFill=0;startSize=16;endSize=16;fontSize=12;" edge="1" parent="1" source="3fJi98H5E-eTO68b8pMl-116" target="3fJi98H5E-eTO68b8pMl-25">
          <mxGeometry width="50" height="50" relative="1" as="geometry">
            <mxPoint x="665" y="350" as="sourcePoint" />
            <mxPoint x="665" y="210" as="targetPoint" />
            <Array as="points">
              <mxPoint x="620" y="300" />
            </Array>
          </mxGeometry>
        </mxCell>
        <mxCell id="3fJi98H5E-eTO68b8pMl-118" value="" style="endArrow=none;html=1;rounded=0;startArrow=none;startFill=0;endFill=0;startSize=16;endSize=16;fontSize=12;edgeStyle=orthogonalEdgeStyle;exitX=1;exitY=0.5;exitDx=0;exitDy=0;" edge="1" parent="1" source="3fJi98H5E-eTO68b8pMl-116" target="3fJi98H5E-eTO68b8pMl-108">
          <mxGeometry width="50" height="50" relative="1" as="geometry">
            <mxPoint x="750" y="310" as="sourcePoint" />
            <mxPoint x="461" y="200" as="targetPoint" />
          </mxGeometry>
        </mxCell>
        <mxCell id="3fJi98H5E-eTO68b8pMl-119" value="Subió" style="shape=rhombus;perimeter=rhombusPerimeter;whiteSpace=wrap;html=1;align=center;" vertex="1" parent="1">
          <mxGeometry x="1020" y="265" width="120" height="60" as="geometry" />
        </mxCell>
        <mxCell id="3fJi98H5E-eTO68b8pMl-120" value="1" style="text;html=1;align=center;verticalAlign=middle;resizable=0;points=[];autosize=1;strokeColor=none;fillColor=none;" vertex="1" parent="1">
          <mxGeometry x="330" y="170" width="30" height="30" as="geometry" />
        </mxCell>
        <mxCell id="3fJi98H5E-eTO68b8pMl-121" value="0..N" style="text;html=1;align=center;verticalAlign=middle;resizable=0;points=[];autosize=1;strokeColor=none;fillColor=none;" vertex="1" parent="1">
          <mxGeometry x="880" y="355" width="50" height="30" as="geometry" />
        </mxCell>
        <mxCell id="3fJi98H5E-eTO68b8pMl-122" value="" style="endArrow=none;html=1;rounded=0;startArrow=none;startFill=0;endFill=0;startSize=16;endSize=16;fontSize=12;edgeStyle=elbowEdgeStyle;elbow=vertical;" edge="1" parent="1" source="3fJi98H5E-eTO68b8pMl-8" target="3fJi98H5E-eTO68b8pMl-119">
          <mxGeometry width="50" height="50" relative="1" as="geometry">
            <mxPoint x="870" y="310" as="sourcePoint" />
            <mxPoint x="940" y="395" as="targetPoint" />
          </mxGeometry>
        </mxCell>
        <mxCell id="3fJi98H5E-eTO68b8pMl-123" value="" style="endArrow=none;html=1;rounded=0;startArrow=none;startFill=0;endFill=0;startSize=16;endSize=16;fontSize=12;edgeStyle=elbowEdgeStyle;elbow=vertical;exitX=0.75;exitY=0;exitDx=0;exitDy=0;" edge="1" parent="1" source="3fJi98H5E-eTO68b8pMl-108" target="3fJi98H5E-eTO68b8pMl-119">
          <mxGeometry width="50" height="50" relative="1" as="geometry">
            <mxPoint x="1045" y="210" as="sourcePoint" />
            <mxPoint x="1090" y="275" as="targetPoint" />
          </mxGeometry>
        </mxCell>
        <mxCell id="3fJi98H5E-eTO68b8pMl-124" value="0..1" style="text;html=1;align=center;verticalAlign=middle;resizable=0;points=[];autosize=1;strokeColor=none;fillColor=none;" vertex="1" parent="1">
          <mxGeometry x="997" y="200" width="40" height="30" as="geometry" />
        </mxCell>
        <mxCell id="3fJi98H5E-eTO68b8pMl-125" value="0..N" style="text;html=1;align=center;verticalAlign=middle;resizable=0;points=[];autosize=1;strokeColor=none;fillColor=none;" vertex="1" parent="1">
          <mxGeometry x="970" y="355" width="50" height="30" as="geometry" />
        </mxCell>
        <mxCell id="3fJi98H5E-eTO68b8pMl-127" value="EQUIPAMIENTO" style="whiteSpace=wrap;html=1;align=center;fontSize=12;" vertex="1" parent="1">
          <mxGeometry x="-40" y="440" width="180" height="60" as="geometry" />
        </mxCell>
        <mxCell id="3fJi98H5E-eTO68b8pMl-128" value="Requiere" style="shape=rhombus;perimeter=rhombusPerimeter;whiteSpace=wrap;html=1;align=center;" vertex="1" parent="1">
          <mxGeometry x="-10" y="340" width="120" height="60" as="geometry" />
        </mxCell>
        <mxCell id="3fJi98H5E-eTO68b8pMl-129" value="" style="endArrow=none;html=1;rounded=0;startArrow=none;startFill=0;endFill=0;startSize=16;endSize=16;fontSize=12;" edge="1" parent="1" source="3fJi98H5E-eTO68b8pMl-32" target="3fJi98H5E-eTO68b8pMl-128">
          <mxGeometry width="50" height="50" relative="1" as="geometry">
            <mxPoint x="300" y="520" as="sourcePoint" />
            <mxPoint x="340" y="380" as="targetPoint" />
          </mxGeometry>
        </mxCell>
        <mxCell id="3fJi98H5E-eTO68b8pMl-131" value="" style="endArrow=none;html=1;rounded=0;startArrow=none;startFill=0;endFill=0;startSize=16;endSize=16;fontSize=12;" edge="1" parent="1" source="3fJi98H5E-eTO68b8pMl-128" target="3fJi98H5E-eTO68b8pMl-127">
          <mxGeometry width="50" height="50" relative="1" as="geometry">
            <mxPoint x="240" y="380" as="sourcePoint" />
            <mxPoint x="120" y="380" as="targetPoint" />
          </mxGeometry>
        </mxCell>
        <mxCell id="3fJi98H5E-eTO68b8pMl-132" value="0..N" style="text;html=1;align=center;verticalAlign=middle;resizable=0;points=[];autosize=1;strokeColor=none;fillColor=none;" vertex="1" parent="1">
          <mxGeometry x="189" y="365" width="50" height="30" as="geometry" />
        </mxCell>
        <mxCell id="3fJi98H5E-eTO68b8pMl-133" value="0..N" style="text;html=1;align=center;verticalAlign=middle;resizable=0;points=[];autosize=1;strokeColor=none;fillColor=none;" vertex="1" parent="1">
          <mxGeometry x="42" y="415" width="50" height="30" as="geometry" />
        </mxCell>
        <mxCell id="3fJi98H5E-eTO68b8pMl-134" value="ID" style="ellipse;whiteSpace=wrap;html=1;align=center;fontStyle=4" vertex="1" parent="1">
          <mxGeometry x="-60" y="540" width="40" height="40" as="geometry" />
        </mxCell>
        <mxCell id="3fJi98H5E-eTO68b8pMl-136" value="Nombre" style="ellipse;whiteSpace=wrap;html=1;align=center;fontStyle=0" vertex="1" parent="1">
          <mxGeometry x="10" y="540" width="60" height="40" as="geometry" />
        </mxCell>
        <mxCell id="3fJi98H5E-eTO68b8pMl-138" value="" style="endArrow=none;html=1;rounded=0;startArrow=none;startFill=0;endFill=0;startSize=16;endSize=16;fontSize=12;" edge="1" parent="1" source="3fJi98H5E-eTO68b8pMl-127" target="3fJi98H5E-eTO68b8pMl-136">
          <mxGeometry width="50" height="50" relative="1" as="geometry">
            <mxPoint x="240" y="380" as="sourcePoint" />
            <mxPoint x="120" y="380" as="targetPoint" />
          </mxGeometry>
        </mxCell>
        <mxCell id="3fJi98H5E-eTO68b8pMl-139" value="" style="endArrow=none;html=1;rounded=0;startArrow=none;startFill=0;endFill=0;startSize=16;endSize=16;fontSize=12;" edge="1" parent="1" source="3fJi98H5E-eTO68b8pMl-127" target="3fJi98H5E-eTO68b8pMl-134">
          <mxGeometry width="50" height="50" relative="1" as="geometry">
            <mxPoint x="57" y="510" as="sourcePoint" />
            <mxPoint x="52" y="550" as="targetPoint" />
          </mxGeometry>
        </mxCell>
        <mxCell id="3fJi98H5E-eTO68b8pMl-141" value="ID" style="ellipse;whiteSpace=wrap;html=1;align=center;fontStyle=4" vertex="1" parent="1">
          <mxGeometry x="182" y="435" width="40" height="40" as="geometry" />
        </mxCell>
        <mxCell id="3fJi98H5E-eTO68b8pMl-142" value="" style="endArrow=none;html=1;rounded=0;startArrow=none;startFill=0;endFill=0;startSize=16;endSize=16;fontSize=12;" edge="1" parent="1" source="3fJi98H5E-eTO68b8pMl-32" target="3fJi98H5E-eTO68b8pMl-141">
          <mxGeometry width="50" height="50" relative="1" as="geometry">
            <mxPoint x="30" y="510" as="sourcePoint" />
            <mxPoint x="-16" y="556" as="targetPoint" />
          </mxGeometry>
        </mxCell>
        <mxCell id="3fJi98H5E-eTO68b8pMl-143" value="Nombre" style="ellipse;whiteSpace=wrap;html=1;align=center;fontStyle=0" vertex="1" parent="1">
          <mxGeometry x="240" y="435" width="60" height="40" as="geometry" />
        </mxCell>
        <mxCell id="3fJi98H5E-eTO68b8pMl-144" value="" style="endArrow=none;html=1;rounded=0;startArrow=none;startFill=0;endFill=0;startSize=16;endSize=16;fontSize=12;" edge="1" parent="1" target="3fJi98H5E-eTO68b8pMl-143" source="3fJi98H5E-eTO68b8pMl-32">
          <mxGeometry width="50" height="50" relative="1" as="geometry">
            <mxPoint x="327" y="390" as="sourcePoint" />
            <mxPoint x="400" y="270" as="targetPoint" />
          </mxGeometry>
        </mxCell>
        <mxCell id="3fJi98H5E-eTO68b8pMl-145" value="Horario" style="ellipse;whiteSpace=wrap;html=1;align=center;" vertex="1" parent="1">
          <mxGeometry x="110" y="176" width="50" height="40" as="geometry" />
        </mxCell>
        <mxCell id="3fJi98H5E-eTO68b8pMl-146" value="" style="endArrow=none;html=1;rounded=0;elbow=vertical;startArrow=none;startFill=0;endFill=0;startSize=16;endSize=16;fontSize=12;" edge="1" parent="1" source="3fJi98H5E-eTO68b8pMl-145" target="3fJi98H5E-eTO68b8pMl-25">
          <mxGeometry width="50" height="50" relative="1" as="geometry">
            <mxPoint x="163" y="107" as="sourcePoint" />
            <mxPoint x="255" y="160" as="targetPoint" />
          </mxGeometry>
        </mxCell>
        <mxCell id="3fJi98H5E-eTO68b8pMl-147" value="(5)" style="text;html=1;align=center;verticalAlign=middle;resizable=0;points=[];autosize=1;strokeColor=none;fillColor=#333333;" vertex="1" parent="1">
          <mxGeometry x="322" y="480" width="40" height="30" as="geometry" />
        </mxCell>
        <mxCell id="3fJi98H5E-eTO68b8pMl-148" value="Horario" style="ellipse;whiteSpace=wrap;html=1;align=center;fontStyle=0" vertex="1" parent="1">
          <mxGeometry x="312" y="435" width="60" height="40" as="geometry" />
        </mxCell>
        <mxCell id="3fJi98H5E-eTO68b8pMl-149" value="" style="endArrow=none;html=1;rounded=0;startArrow=none;startFill=0;endFill=0;startSize=16;endSize=16;fontSize=12;" edge="1" parent="1" source="3fJi98H5E-eTO68b8pMl-32" target="3fJi98H5E-eTO68b8pMl-148">
          <mxGeometry width="50" height="50" relative="1" as="geometry">
            <mxPoint x="288" y="400" as="sourcePoint" />
            <mxPoint x="282" y="445" as="targetPoint" />
          </mxGeometry>
        </mxCell>
        <mxCell id="3fJi98H5E-eTO68b8pMl-153" value="Username" style="ellipse;whiteSpace=wrap;html=1;align=center;fontStyle=4" vertex="1" parent="1">
          <mxGeometry x="957" y="-95" width="70" height="40" as="geometry" />
        </mxCell>
        <mxCell id="3fJi98H5E-eTO68b8pMl-154" value="Contraseña" style="ellipse;whiteSpace=wrap;html=1;align=center;fontStyle=0" vertex="1" parent="1">
          <mxGeometry x="1040" y="-95" width="70" height="40" as="geometry" />
        </mxCell>
        <mxCell id="3fJi98H5E-eTO68b8pMl-155" value="" style="endArrow=none;html=1;rounded=0;startArrow=none;startFill=0;endFill=0;startSize=16;endSize=16;fontSize=12;" edge="1" parent="1" source="3fJi98H5E-eTO68b8pMl-5" target="3fJi98H5E-eTO68b8pMl-153">
          <mxGeometry width="50" height="50" relative="1" as="geometry">
            <mxPoint x="611" y="173.2941176470589" as="sourcePoint" />
            <mxPoint x="473.61846182508" y="105.13866532486247" as="targetPoint" />
          </mxGeometry>
        </mxCell>
        <mxCell id="3fJi98H5E-eTO68b8pMl-156" value="" style="endArrow=none;html=1;rounded=0;startArrow=none;startFill=0;endFill=0;startSize=16;endSize=16;fontSize=12;" edge="1" parent="1" source="3fJi98H5E-eTO68b8pMl-5" target="3fJi98H5E-eTO68b8pMl-154">
          <mxGeometry width="50" height="50" relative="1" as="geometry">
            <mxPoint x="1028" y="-10" as="sourcePoint" />
            <mxPoint x="1011" y="-46" as="targetPoint" />
          </mxGeometry>
        </mxCell>
        <mxCell id="3fJi98H5E-eTO68b8pMl-157" value="" style="endArrow=none;html=1;rounded=0;startArrow=none;startFill=0;endFill=0;startSize=16;endSize=16;fontSize=12;" edge="1" parent="1" target="3fJi98H5E-eTO68b8pMl-151">
          <mxGeometry width="50" height="50" relative="1" as="geometry">
            <mxPoint x="601" y="163.2941176470589" as="sourcePoint" />
            <mxPoint x="463.61846182508" y="95.13866532486247" as="targetPoint" />
          </mxGeometry>
        </mxCell>
        <mxCell id="3fJi98H5E-eTO68b8pMl-151" value="&lt;div&gt;Nombre&lt;/div&gt;&lt;div&gt;completo&lt;/div&gt;" style="ellipse;whiteSpace=wrap;html=1;align=center;fontStyle=0" vertex="1" parent="1">
          <mxGeometry x="460" y="80" width="70" height="40" as="geometry" />
        </mxCell>
        <mxCell id="3fJi98H5E-eTO68b8pMl-158" value="(6)" style="text;html=1;align=center;verticalAlign=middle;resizable=0;points=[];autosize=1;strokeColor=none;fillColor=#333333;" vertex="1" parent="1">
          <mxGeometry x="1056" y="-135" width="40" height="30" as="geometry" />
        </mxCell>
        <mxCell id="3fJi98H5E-eTO68b8pMl-159" value="Email" style="ellipse;whiteSpace=wrap;html=1;align=center;fontStyle=0" vertex="1" parent="1">
          <mxGeometry x="460" y="130" width="70" height="40" as="geometry" />
        </mxCell>
        <mxCell id="3fJi98H5E-eTO68b8pMl-160" value="" style="endArrow=none;html=1;rounded=0;startArrow=none;startFill=0;endFill=0;startSize=16;endSize=16;fontSize=12;" edge="1" parent="1" source="3fJi98H5E-eTO68b8pMl-6" target="3fJi98H5E-eTO68b8pMl-159">
          <mxGeometry width="50" height="50" relative="1" as="geometry">
            <mxPoint x="611" y="173.2941176470589" as="sourcePoint" />
            <mxPoint x="529" y="124" as="targetPoint" />
          </mxGeometry>
        </mxCell>
      </root>
    </mxGraphModel>
  </diagram>
</mxfile>
